REM DIRINDEX 1\6,1\2\7,1\2\8,1\2\9,1\3\10,1\3\11,1\4\12,1\4\13,1\4\14,1\5\15,1\5\16,1\5\17
REM DIRNAME cjc040,folder01,folder02,folder03,folder04,folder05,folder06,folder07,folder08,folder09,folder10,folder11,folder12,folder13,folder14,folder15,folder16
TITLE ""
FILE "P2Q_k_091-100.mp3" MP3
  TRACK 01 AUDIO
    TITLE "15:cjc040_1609"
    INDEX 01 00:00:00
  TRACK 02 AUDIO
    TITLE "0:"
    INDEX 01 00:01:19
  TRACK 03 AUDIO
    TITLE "16:cjc040_1610"
    INDEX 01 00:01:73
  TRACK 04 AUDIO
    TITLE "0:"
    INDEX 01 00:03:14
  TRACK 05 AUDIO
    TITLE "17:cjc040_1611"
    INDEX 01 00:03:68
  TRACK 06 AUDIO
    TITLE "17:cjc040_1612"
    INDEX 01 00:06:35
  TRACK 07 AUDIO
    TITLE "0:"
    INDEX 01 00:08:58
  TRACK 08 AUDIO
    TITLE "15:cjc040_1613"
    INDEX 01 00:09:36
  TRACK 09 AUDIO
    TITLE "0:"
    INDEX 01 00:11:11
  TRACK 10 AUDIO
    TITLE "16:cjc040_1614"
    INDEX 01 00:11:66
  TRACK 11 AUDIO
    TITLE "0:"
    INDEX 01 00:13:67
  TRACK 12 AUDIO
    TITLE "17:cjc040_1615"
    INDEX 01 00:14:47
  TRACK 13 AUDIO
    TITLE "17:cjc040_1616"
    INDEX 01 00:16:61
  TRACK 14 AUDIO
    TITLE "0:"
    INDEX 01 00:20:53
  TRACK 15 AUDIO
    TITLE "15:cjc040_1617"
    INDEX 01 00:21:25
  TRACK 16 AUDIO
    TITLE "0:"
    INDEX 01 00:23:10
  TRACK 17 AUDIO
    TITLE "16:cjc040_1618"
    INDEX 01 00:23:61
  TRACK 18 AUDIO
    TITLE "0:"
    INDEX 01 00:25:31
  TRACK 19 AUDIO
    TITLE "17:cjc040_1619"
    INDEX 01 00:26:09
  TRACK 20 AUDIO
    TITLE "17:cjc040_1620"
    INDEX 01 00:29:27
  TRACK 21 AUDIO
    TITLE "0:"
    INDEX 01 00:31:47
  TRACK 22 AUDIO
    TITLE "15:cjc040_1621"
    INDEX 01 00:32:25
  TRACK 23 AUDIO
    TITLE "0:"
    INDEX 01 00:33:64
  TRACK 24 AUDIO
    TITLE "16:cjc040_1622"
    INDEX 01 00:34:45
  TRACK 25 AUDIO
    TITLE "0:"
    INDEX 01 00:36:40
  TRACK 26 AUDIO
    TITLE "17:cjc040_1623"
    INDEX 01 00:37:18
  TRACK 27 AUDIO
    TITLE "17:cjc040_1624"
    INDEX 01 00:39:47
  TRACK 28 AUDIO
    TITLE "0:"
    INDEX 01 00:42:18
  TRACK 29 AUDIO
    TITLE "15:cjc040_1625"
    INDEX 01 00:42:66
  TRACK 30 AUDIO
    TITLE "0:"
    INDEX 01 00:44:67
  TRACK 31 AUDIO
    TITLE "16:cjc040_1626"
    INDEX 01 00:45:47
  TRACK 32 AUDIO
    TITLE "0:"
    INDEX 01 00:47:70
  TRACK 33 AUDIO
    TITLE "17:cjc040_1627"
    INDEX 01 00:48:49
  TRACK 34 AUDIO
    TITLE "17:cjc040_1628"
    INDEX 01 00:51:46
  TRACK 35 AUDIO
    TITLE "0:"
    INDEX 01 00:52:67
  TRACK 36 AUDIO
    TITLE "15:cjc040_1629"
    INDEX 01 00:53:49
  TRACK 37 AUDIO
    TITLE "0:"
    INDEX 01 00:55:53
  TRACK 38 AUDIO
    TITLE "16:cjc040_1630"
    INDEX 01 00:56:33
  TRACK 39 AUDIO
    TITLE "0:"
    INDEX 01 00:57:70
  TRACK 40 AUDIO
    TITLE "17:cjc040_1631"
    INDEX 01 00:58:48
  TRACK 41 AUDIO
    TITLE "17:cjc040_1632"
    INDEX 01 01:01:74
  TRACK 42 AUDIO
    TITLE "0:"
    INDEX 01 01:06:40
  TRACK 43 AUDIO
    TITLE "15:cjc040_1633"
    INDEX 01 01:07:15
  TRACK 44 AUDIO
    TITLE "0:"
    INDEX 01 01:08:74
  TRACK 45 AUDIO
    TITLE "16:cjc040_1634"
    INDEX 01 01:09:50
  TRACK 46 AUDIO
    TITLE "0:"
    INDEX 01 01:11:19
  TRACK 47 AUDIO
    TITLE "17:cjc040_1635"
    INDEX 01 01:11:70
  TRACK 48 AUDIO
    TITLE "17:cjc040_1636"
    INDEX 01 01:14:41
  TRACK 49 AUDIO
    TITLE "0:"
    INDEX 01 01:19:74
  TRACK 50 AUDIO
    TITLE "15:cjc040_1637"
    INDEX 01 01:20:49
  TRACK 51 AUDIO
    TITLE "0:"
    INDEX 01 01:22:56
  TRACK 52 AUDIO
    TITLE "16:cjc040_1638"
    INDEX 01 01:23:32
  TRACK 53 AUDIO
    TITLE "0:"
    INDEX 01 01:25:37
  TRACK 54 AUDIO
    TITLE "17:cjc040_1639"
    INDEX 01 01:26:15
  TRACK 55 AUDIO
    TITLE "17:cjc040_1640"
    INDEX 01 01:28:43
  TRACK 56 AUDIO
    TITLE "0:"
    INDEX 01 01:31:67
  TRACK 57 AUDIO
    TITLE "15:cjc040_1641"
    INDEX 01 01:32:43
  TRACK 58 AUDIO
    TITLE "0:"
    INDEX 01 01:33:62
  TRACK 59 AUDIO
    TITLE "16:cjc040_1642"
    INDEX 01 01:34:38
  TRACK 60 AUDIO
    TITLE "0:"
    INDEX 01 01:36:43
  TRACK 61 AUDIO
    TITLE "17:cjc040_1643"
    INDEX 01 01:37:22
  TRACK 62 AUDIO
    TITLE "17:cjc040_1644"
    INDEX 01 01:39:17
  TRACK 63 AUDIO
    TITLE "0:"
    INDEX 01 01:41:10
  TRACK 64 AUDIO
    TITLE "15:cjc040_1645"
    INDEX 01 01:41:63
  TRACK 65 AUDIO
    TITLE "0:"
    INDEX 01 01:44:07
  TRACK 66 AUDIO
    TITLE "16:cjc040_1646"
    INDEX 01 01:44:60
  TRACK 67 AUDIO
    TITLE "0:"
    INDEX 01 01:46:31
  TRACK 68 AUDIO
    TITLE "17:cjc040_1647"
    INDEX 01 01:47:15
  TRACK 69 AUDIO
    TITLE "17:cjc040_1648"
    INDEX 01 01:49:49
  TRACK 70 AUDIO
    TITLE "0:"
    INDEX 01 01:54:70
